<svg width="16" height="16" viewBox="0 0 16 16" fill="none" xmlns="http://www.w3.org/2000/svg">
<path fill-rule="evenodd" clip-rule="evenodd" d="M12.6325 11.8159C12.4029 12.0547 12.023 12.0622 11.7842 11.8325L8.18418 8.4325C8.06653 8.31938 8.00005 8.16321 8.00005 8C8.00005 7.83679 8.06653 7.68062 8.18418 7.5675L11.7842 4.1675C12.023 3.93782 12.4029 3.94527 12.6325 4.18413C12.8622 4.423 12.8548 4.80282 12.6159 5.0325L9.46571 8L12.6159 10.9675C12.8548 11.1972 12.8622 11.577 12.6325 11.8159ZM7.83255 11.8159C7.60287 12.0547 7.22305 12.0622 6.98418 11.8325L3.38418 8.4325C3.26653 8.31938 3.20005 8.16321 3.20005 8C3.20005 7.83679 3.26653 7.68062 3.38418 7.5675L6.98418 4.1675C7.22304 3.93782 7.60287 3.94527 7.83255 4.18413C8.06222 4.423 8.05478 4.80282 7.81591 5.0325L4.66571 8L7.81591 10.9675C8.05478 11.1972 8.06222 11.577 7.83255 11.8159Z" fill="#626262"/>
</svg>
