<svg width="40" height="15" viewBox="0 0 40 15" fill="none" xmlns="http://www.w3.org/2000/svg">
<path d="M27.4062 14.2002V0.200195H33.1663C34.4063 0.200195 35.4663 0.400195 36.3463 0.800196C37.2396 1.2002 37.9263 1.77353 38.4063 2.5202C38.8863 3.26686 39.1262 4.15353 39.1262 5.1802C39.1262 6.20686 38.8863 7.09353 38.4063 7.8402C37.9263 8.58686 37.2396 9.1602 36.3463 9.5602C35.4663 9.9602 34.4063 10.1602 33.1663 10.1602H28.8463L30.0063 8.9402V14.2002H27.4062ZM30.0063 9.2202L28.8463 7.9602H33.0463C34.1929 7.9602 35.0529 7.7202 35.6262 7.2402C36.2129 6.74686 36.5063 6.0602 36.5063 5.1802C36.5063 4.28686 36.2129 3.6002 35.6262 3.1202C35.0529 2.6402 34.1929 2.4002 33.0463 2.4002H28.8463L30.0063 1.1202V9.2202Z" fill="#324F6A"/>
<path d="M18.2142 14.2002V2.4002H13.5742V0.200195H25.4542V2.4002H20.8142V14.2002H18.2142Z" fill="#324F6A"/>
<path d="M7.48 14.4C6.41333 14.4 5.42 14.2267 4.5 13.88C3.59333 13.52 2.8 13.02 2.12 12.38C1.45333 11.7267 0.933333 10.96 0.56 10.08C0.186667 9.2 0 8.24 0 7.2C0 6.16 0.186667 5.2 0.56 4.32C0.933333 3.44 1.46 2.68 2.14 2.04C2.82 1.38667 3.61333 0.886667 4.52 0.54C5.42667 0.18 6.42 0 7.5 0C8.64667 0 9.69333 0.2 10.64 0.6C11.5867 0.986667 12.3867 1.56667 13.04 2.34L11.36 3.92C10.8533 3.37333 10.2867 2.96667 9.66 2.7C9.03333 2.42 8.35333 2.28 7.62 2.28C6.88667 2.28 6.21333 2.4 5.6 2.64C5 2.88 4.47333 3.22 4.02 3.66C3.58 4.1 3.23333 4.62 2.98 5.22C2.74 5.82 2.62 6.48 2.62 7.2C2.62 7.92 2.74 8.58 2.98 9.18C3.23333 9.78 3.58 10.3 4.02 10.74C4.47333 11.18 5 11.52 5.6 11.76C6.21333 12 6.88667 12.12 7.62 12.12C8.35333 12.12 9.03333 11.9867 9.66 11.72C10.2867 11.44 10.8533 11.02 11.36 10.46L13.04 12.06C12.3867 12.82 11.5867 13.4 10.64 13.8C9.69333 14.2 8.64 14.4 7.48 14.4Z" fill="#324F6A"/>
</svg>
