<svg width="7" height="7" viewBox="0 0 7 7" fill="none" xmlns="http://www.w3.org/2000/svg">
<path d="M1.05 5.95H0.35C0.250833 5.95 0.167708 5.91646 0.100625 5.84938C0.0335417 5.78229 0 5.69917 0 5.6C0 5.50083 0.0335417 5.41771 0.100625 5.35063C0.167708 5.28354 0.250833 5.25 0.35 5.25H1.05V3.85H0.35C0.250833 3.85 0.167708 3.81646 0.100625 3.74938C0.0335417 3.68229 0 3.59917 0 3.5C0 3.40083 0.0335417 3.31771 0.100625 3.25063C0.167708 3.18354 0.250833 3.15 0.35 3.15H1.05V1.75H0.35C0.250833 1.75 0.167708 1.71646 0.100625 1.64938C0.0335417 1.58229 0 1.49917 0 1.4C0 1.30083 0.0335417 1.21771 0.100625 1.15063C0.167708 1.08354 0.250833 1.05 0.35 1.05H1.05V0.35C1.05 0.250833 1.08354 0.167708 1.15063 0.100625C1.21771 0.0335417 1.30083 0 1.4 0C1.49917 0 1.58229 0.0335417 1.64938 0.100625C1.71646 0.167708 1.75 0.250833 1.75 0.35V1.05H3.15V0.35C3.15 0.250833 3.18354 0.167708 3.25063 0.100625C3.31771 0.0335417 3.40083 0 3.5 0C3.59917 0 3.68229 0.0335417 3.74938 0.100625C3.81646 0.167708 3.85 0.250833 3.85 0.35V1.05H5.25V0.35C5.25 0.250833 5.28354 0.167708 5.35063 0.100625C5.41771 0.0335417 5.50083 0 5.6 0C5.69917 0 5.78229 0.0335417 5.84938 0.100625C5.91646 0.167708 5.95 0.250833 5.95 0.35V1.05H6.65C6.74917 1.05 6.83229 1.08354 6.89938 1.15063C6.96646 1.21771 7 1.30083 7 1.4C7 1.49917 6.96646 1.58229 6.89938 1.64938C6.83229 1.71646 6.74917 1.75 6.65 1.75H5.95V3.15H6.65C6.74917 3.15 6.83229 3.18354 6.89938 3.25063C6.96646 3.31771 7 3.40083 7 3.5C7 3.59917 6.96646 3.68229 6.89938 3.74938C6.83229 3.81646 6.74917 3.85 6.65 3.85H5.95V5.25H6.65C6.74917 5.25 6.83229 5.28354 6.89938 5.35063C6.96646 5.41771 7 5.50083 7 5.6C7 5.69917 6.96646 5.78229 6.89938 5.84938C6.83229 5.91646 6.74917 5.95 6.65 5.95H5.95V6.65C5.95 6.74917 5.91646 6.83229 5.84938 6.89938C5.78229 6.96646 5.69917 7 5.6 7C5.50083 7 5.41771 6.96646 5.35063 6.89938C5.28354 6.83229 5.25 6.74917 5.25 6.65V5.95H3.85V6.65C3.85 6.74917 3.81646 6.83229 3.74938 6.89938C3.68229 6.96646 3.59917 7 3.5 7C3.40083 7 3.31771 6.96646 3.25063 6.89938C3.18354 6.83229 3.15 6.74917 3.15 6.65V5.95H1.75V6.65C1.75 6.74917 1.71646 6.83229 1.64938 6.89938C1.58229 6.96646 1.49917 7 1.4 7C1.30083 7 1.21771 6.96646 1.15063 6.89938C1.08354 6.83229 1.05 6.74917 1.05 6.65V5.95ZM1.75 5.25H3.15V3.85H1.75V5.25ZM3.85 5.25H5.25V3.85H3.85V5.25ZM1.75 3.15H3.15V1.75H1.75V3.15ZM3.85 3.15H5.25V1.75H3.85V3.15Z" fill="white"/>
</svg>
