<svg width="20" height="20" viewBox="0 0 20 20" fill="none" xmlns="http://www.w3.org/2000/svg">
<path d="M9.26164 0.700841C8.98827 0.433053 8.54506 0.433053 8.27169 0.700841C7.99832 0.968629 7.99832 1.4028 8.27169 1.67059L9.41005 2.78571H9C5.13401 2.78571 2 5.85576 2 9.64286C2 13.43 5.13401 16.5 9 16.5C12.866 16.5 16 13.43 16 9.64286C16 9.26415 15.6866 8.95714 15.3 8.95714C14.9134 8.95714 14.6 9.26415 14.6 9.64286C14.6 12.6725 12.0928 15.1286 9 15.1286C5.90721 15.1286 3.4 12.6725 3.4 9.64286C3.4 6.63178 5.87651 4.18732 8.9431 4.15742L8.27169 4.81513C7.99832 5.08291 7.99832 5.51709 8.27169 5.78487C8.54506 6.05266 8.98827 6.05266 9.26164 5.78487L11.3616 3.72773C11.635 3.45994 11.635 3.02577 11.3616 2.75798L9.26164 0.700841Z" fill="#0D5781"/>
<path d="M12.7335 6.63466C13.012 6.89728 13.0205 7.33137 12.7524 7.60423L9.1591 11.2614C9.02714 11.3957 8.84505 11.4716 8.65475 11.4716C8.46446 11.4716 8.28237 11.3957 8.15041 11.2614L6.61039 9.69393C6.3423 9.42107 6.35077 8.98698 6.62932 8.72436C6.90786 8.46174 7.351 8.47005 7.61909 8.74291L8.65477 9.79702L11.7437 6.65319C12.0118 6.38033 12.455 6.37204 12.7335 6.63466Z" fill="#2CA9BC"/>
</svg>
